<?xml version="1.0" encoding="UTF-8" standalone="no"?>
<!-- Created with Inkscape (http://www.inkscape.org/) -->

<svg
   xmlns:dc="http://purl.org/dc/elements/1.1/"
   xmlns:cc="http://creativecommons.org/ns#"
   xmlns:rdf="http://www.w3.org/1999/02/22-rdf-syntax-ns#"
   xmlns:svg="http://www.w3.org/2000/svg"
   xmlns="http://www.w3.org/2000/svg"
   xmlns:sodipodi="http://sodipodi.sourceforge.net/DTD/sodipodi-0.dtd"
   xmlns:inkscape="http://www.inkscape.org/namespaces/inkscape"
   version="1.1"
   id="svg115"
   width="366"
   height="316"
   viewBox="0 0 366 316"
   sodipodi:docname="map_edit.svg"
   inkscape:version="0.92.4 (f8dce91, 2019-08-02)">
  <metadata
     id="metadata121">
    <rdf:RDF>
      <cc:Work
         rdf:about="">
        <dc:format>image/svg+xml</dc:format>
        <dc:type
           rdf:resource="http://purl.org/dc/dcmitype/StillImage" />
        <dc:title></dc:title>
      </cc:Work>
    </rdf:RDF>
  </metadata>
  <defs
     id="defs119" />
  <sodipodi:namedview
     pagecolor="#ffffff"
     bordercolor="#666666"
     borderopacity="1"
     objecttolerance="10"
     gridtolerance="10"
     guidetolerance="10"
     inkscape:pageopacity="0"
     inkscape:pageshadow="2"
     inkscape:window-width="1853"
     inkscape:window-height="1025"
     id="namedview117"
     showgrid="false"
     inkscape:zoom="2.6708861"
     inkscape:cx="183"
     inkscape:cy="158"
     inkscape:window-x="67"
     inkscape:window-y="27"
     inkscape:window-maximized="1"
     inkscape:current-layer="svg115" />
  <path
     style="fill:#000000"
     d="m 298.89639,314.9148 c -1.03798,-0.65723 -0.75472,-0.9185 1.10361,-1.01791 1.375,-0.0736 2.89171,-0.0624 3.37047,0.0248 0.47876,0.0872 5.33257,0.30683 10.78626,0.48802 5.45368,0.18119 10.21798,0.63162 10.58732,1.00097 1.01012,1.01012 -24.23408,0.52578 -25.84766,-0.49592 z M 28.873225,262.8228 c -2.206384,-0.76211 -2.730658,-1.69043 -3.275879,-5.8005 -0.470285,-3.54518 -1.318837,-5.39308 -3.080191,-6.70775 L 20.086068,248.5 18.982928,215 c -1.037085,-31.49405 -1.207093,-44.10917 -0.602586,-44.71368 0.641482,-0.64148 8.606068,-0.45428 27.619658,0.64916 12.644639,0.73382 28.641082,0.92736 41.74564,0.50508 l 21.24564,-0.68463 -0.5077,-6.62797 c -0.27924,-3.64538 -0.96962,-14.9328 -1.53417,-25.08316 -0.56456,-10.15035 -1.14169,-18.57041 -1.28251,-18.71123 -1.05331,-1.05331 -58.23376,-2.18044 -69.1669,-1.3634 -7.15,0.53432 -14.862419,0.98462 -17.138709,1.00066 -3.972935,0.028 -4.165953,-0.11605 -4.818875,-3.59643 -0.874153,-4.65963 -0.806958,-87.899472 0.07633,-94.558036 l 0.668359,-5.038334 -3.393554,0.716338 C 10.027099,17.888354 8.05,18.64544 7.5,19.176781 6.8426437,19.811837 6.9936158,20.032722 7.9406098,19.821429 8.7329453,19.644643 9.5534411,20.2875 9.763934,21.25 10.05341,22.573658 9.4588183,23.031092 7.3233242,23.127623 5.7704959,23.197816 3.4624715,23.362575 2.1943812,23.493755 0.53915257,23.664983 0.0454964,23.323822 0.44438115,22.284345 0.74997152,21.487989 1,20.690358 1,20.511832 c 0,-0.178526 0.9,-0.08924 2,0.198419 1.9922731,0.520991 2.420002,-0.281619 2.0663374,-3.877369 -0.2160157,-2.196258 2.7116475,-3.04374 6.6313176,-1.919593 1.733489,0.497158 3.419256,0.636466 3.746149,0.309574 0.326892,-0.326893 15.178952,-0.490834 33.004576,-0.364314 L 80.858607,15.088585 81.179304,12.294293 81.5,9.5 106,8.7160447 c 13.475,-0.4311753 30.00023,-0.6561753 36.72274,-0.5 11.24872,0.2613271 12.40422,0.4680656 14.5,2.5943083 l 2.27726,2.310352 -3,-0.310352 -3,-0.310353 -0.2119,12.324534 -0.2119,12.324534 12.2119,-0.568102 C 172.00465,36.26851 183.6875,35.73887 191.25,35.403988 205.39188,34.777759 206.52941,34.34746 203.34501,30.828741 201.90578,29.238411 201.88992,29 203.22336,29 c 1.29848,0 1.45793,-1.340253 1.04096,-8.75 -0.27081,-4.8125 -0.91773,-9.2 -1.4376,-9.75 -0.60068,-0.6355001 -0.68329,-0.271 -0.22664,1 0.75497,2.101275 0.62873,2.04156 -1.45381,-0.687727 -1.11336,-1.4591148 -0.89508,-1.8908104 1.61145,-3.1869874 2.29469,-1.1866288 10.49401,-1.7205789 39.32077,-2.5606186 48.03532,-1.3997959 43.79554,-1.5262013 44.88458,1.3381937 0.50246,1.3215734 1.39132,2.6981311 1.97525,3.059017 C 289.52224,9.8227637 290,11.021669 290,12.126111 c 0,1.826562 0.61015,1.995154 6.75,1.865108 3.7125,-0.07863 10.2375,-0.108826 14.5,-0.06709 L 319,14 v 2.833333 c 0,1.558334 0.31464,3.147973 0.6992,3.532532 1.16212,1.162122 0.27602,9.112111 -1.76297,15.817224 C 316.8797,39.65739 316.01184,43.7375 316.00764,45.25 L 316,48 h 14.42385 14.42386 l 0.42434,8.25 c 0.38739,7.531366 -0.21844,85.9703 -0.66778,86.46119 -0.10632,0.11616 -12.77328,0.89558 -28.14879,1.73206 -15.37552,0.83648 -31.87799,1.80054 -36.67216,2.14234 l -8.71668,0.62146 0.60756,4.64647 c 0.33415,2.55557 0.66681,4.73163 0.73923,4.8357 0.0724,0.10407 14.74652,-0.50977 32.60912,-1.36409 33.28433,-1.59189 38.90029,-1.73563 39.62184,-1.01407 0.75774,0.75774 0.56329,6.10485 -0.47963,13.18894 -0.56679,3.85 -1.51868,18.925 -2.1153,33.5 -1.70805,41.72654 -1.88609,45.16996 -2.35993,45.6438 -0.67334,0.67334 -90.59174,11.78732 -91.11694,11.26212 -0.2504,-0.25039 -1.14186,-6.01686 -1.98104,-12.81437 -0.83918,-6.79751 -1.65308,-12.46022 -1.80867,-12.58379 -0.15558,-0.12357 -1.97038,-0.48508 -4.03288,-0.80335 L 237,231.12574 v 4.86974 c 0,3.98419 -0.36207,4.98466 -1.99105,5.50168 -1.09508,0.34756 -2.33258,0.42223 -2.75,0.16593 -0.41742,-0.2563 -0.61011,-3.90788 -0.42819,-8.11462 l 0.33075,-7.64862 7.83474,0.18883 c 4.30911,0.10386 8.30601,0.4801 8.88201,0.83608 0.57599,0.35598 1.70175,5.95628 2.50169,12.4451 0.79994,6.48882 1.70035,12.04378 2.00093,12.34435 0.47986,0.47986 71.88576,-7.95857 78.7635,-9.30792 2.61508,-0.51306 2.65095,-0.6373 3.23762,-11.21255 0.32629,-5.88156 0.88427,-19.24374 1.23996,-29.69374 0.76331,-22.4254 0.88077,-24.58617 1.89251,-34.81383 l 0.77296,-7.81382 -8.39371,0.54408 c -8.06477,0.52277 -13.54559,0.7746 -47.98721,2.20494 l -15.59349,0.64759 -0.65651,-6.28117 c -1.00794,-9.64346 -0.8238,-13.98646 0.59349,-13.9977 0.6875,-0.005 17,-0.90099 36.25,-1.99009 19.25,-1.0891 35.26624,-1.98464 35.59164,-1.99009 0.9079,-0.0152 1.87125,-58.198421 1.19912,-72.42342 L 339.69605,53 H 325.34802 311 l 0.008,-7.25 c 0.005,-4.268261 0.79706,-9.845936 1.92708,-13.561934 1.15435,-3.796006 1.69705,-7.682342 1.36152,-9.75 L 313.73832,19 h -14.76098 -14.76098 l -0.87079,-4.75 -0.87079,-4.75 h -8.48739 c -13.93498,0 -64.3377,1.516974 -64.77011,1.94939 -0.22031,0.220303 0.001,6.396814 0.49227,13.72558 0.56028,8.361948 0.53853,13.567782 -0.0584,13.976777 -1.09627,0.751124 -24.29969,1.824589 -46.15115,2.135101 L 148.5,41.5 148.22235,27.217998 147.9447,12.935997 123.72235,13.603929 c -24.460748,0.674506 -34.237607,1.013013 -36.410614,1.260654 -0.653545,0.07448 -1.103545,1.372917 -1,2.885417 L 86.5,20.5 56.25,20.469525 26,20.43905 v 3.280475 C 26,26.417448 25.61524,27 23.833333,27 c -1.191666,0 -1.903411,-0.263255 -1.581654,-0.585012 0.321756,-0.321756 0.07258,-2.009256 -0.553733,-3.75 L 20.559201,19.5 19.853724,24 c -0.840128,5.358891 -1.076359,85.56887 -0.26096,88.60652 0.537653,2.00294 1.040942,2.08221 10.236345,1.61235 5.31899,-0.2718 9.895891,-0.83286 10.170891,-1.24682 0.275,-0.41395 2.75,-0.60727 5.5,-0.42958 2.75,0.17768 18.485591,0.8264 34.967981,1.4416 16.48239,0.61521 30.061609,1.21219 30.176049,1.32662 0.53093,0.53093 3.71771,45.14131 3.65675,51.18931 -0.0166,1.65 -0.0911,4.575 -0.16547,6.5 l -0.13522,3.5 -11.75005,0.0537 C 95.78752,176.58322 85.55,176.78106 79.5,176.99335 68.838421,177.36744 43.550269,176.54141 29.726497,175.3675 l -6.773503,-0.5752 0.595508,17.85385 c 0.32753,9.81962 0.748034,21.67885 0.934454,26.35385 0.18642,4.675 0.379018,12.36527 0.427995,17.08948 0.08348,8.05219 0.238973,8.6578 2.485792,9.68152 1.906526,0.86867 2.542141,2.1492 3.107614,6.26068 l 0.710872,5.16865 9.642385,-0.59715 C 46.160926,256.27475 58.825,255.77806 69,255.49944 c 10.175,-0.27862 24.64399,-0.77832 32.15331,-1.11044 l 13.65331,-0.60386 0.71936,-13.43103 0.71936,-13.43103 8.12733,0.28846 8.12733,0.28846 0.31754,5.91283 C 133.26093,241.66905 132.52632,244 129.48095,244 127.11534,244 127,243.72105 127,238 c 0,-5.95286 -0.0228,-6 -2.89756,-6 h -2.89755 l -0.72305,13.5 -0.72306,13.5 -3.12939,0.0387 c -5.32509,0.0658 -76.950932,2.95695 -80.12939,3.2344 -1.65,0.14403 -3.45,0.53079 -4,0.85946 -0.55,0.32868 -2.182049,0.1893 -3.626775,-0.30972 z M 25,21.559017 C 25,21.316476 24.55,20.839919 24,20.5 23.45,20.160081 23,20.358524 23,20.940983 23,21.523442 23.45,22 24,22 c 0.55,0 1,-0.198442 1,-0.440983 z M 172.24761,123.47648 171.99523,106.9561 188.24761,107.22805 204.5,107.5 l 0.0482,11 c 0.0265,6.05 -0.1294,13.3625 -0.34652,16.25 l -0.39475,5.25 -15.65348,-0.002 -15.65349,-0.002 -0.25239,-16.52037 z M 322.5,26 c 0.33992,-0.55 0.81648,-1 1.05902,-1 0.24254,0 0.44098,0.45 0.44098,1 0,0.55 -0.47656,1 -1.05902,1 -0.58246,0 -0.7809,-0.45 -0.44098,-1 z"
     id="path125"
     inkscape:connector-curvature="0" />
</svg>
